<?xml version="1.0" encoding="utf-8"?>
<!-- Generator: Adobe Illustrator 26.2.1, SVG Export Plug-In . SVG Version: 6.00 Build 0)  -->
<svg version="1.1" id="Layer_1" xmlns="http://www.w3.org/2000/svg" xmlns:xlink="http://www.w3.org/1999/xlink" x="0px" y="0px"
	 viewBox="0 0 785.61 1157.4" style="enable-background:new 0 0 785.61 1157.4;" xml:space="preserve">
<style type="text/css">
	.st0{fill:#FFFAF8;}
</style>
<g>
	<g>
		<g>
			<g>
				<path class="st0" d="M77.39,1125.18c-3.54-2.55-7.86-2.55-14.14-2.55h-27.5v-76.61c0-6.29,0-10.61-2.75-14.14
					c-2.75-3.54-7.27-5.3-15.13-5.3c-7.86,0-12.38,1.77-15.13,5.3C0,1035.41,0,1039.73,0,1046.02v92.13c0,12.18,4.52,16.7,16.7,16.7
					h46.55c6.29,0,10.61,0,14.14-2.55c3.53-2.36,5.3-6.48,5.3-13.55C82.7,1131.67,80.93,1127.54,77.39,1125.18z"/>
				<path class="st0" d="M149.3,994.16c-6.68,4.52-9.43,7.07-9.43,12.77c0,7.46,4.71,13.75,12.38,13.75c2.36,0,6.88-0.59,14.93-3.54
					c11.98-4.32,17.09-8.44,17.09-15.32c0-5.69-3.54-16.11-14.14-16.11C163.83,985.71,156.37,989.45,149.3,994.16z"/>
				<path class="st0" d="M195.26,1026.57c-7.66,0-12.18,1.77-14.93,5.3c-2.75,3.54-2.75,7.86-2.75,14.14v53.43
					c0,6.48,0,14.34-4.91,20.23c-3.34,4.12-8.84,6.68-17.48,6.68c-8.64,0-14.14-2.55-17.48-6.68c-4.91-5.89-4.91-13.75-4.91-20.23
					v-53.43c0-6.29,0-10.61-2.75-14.14c-2.75-3.54-7.27-5.3-15.13-5.3c-7.86,0-12.37,1.77-15.13,5.3
					c-2.75,3.54-2.75,7.86-2.75,14.14v51.67c0,13.75,0,28.68,11.2,42.03c8.25,9.82,21.8,17.48,46.75,17.48s38.5-7.66,46.75-17.48
					c11.2-13.36,11.2-28.29,11.2-42.03v-51.67c0-6.29,0-10.61-2.75-14.14C207.44,1028.34,202.92,1026.57,195.26,1026.57z"/>
				<path class="st0" d="M320.8,1035.02c-12.18-7.46-27.31-8.84-40.07-8.84c-11.79,0-21.02,1.18-26.71,3.34
					c-11.2,4.13-11.2,11.79-11.2,18.86v88c0,6.29,0,10.61,2.75,14.15c2.55,3.53,7.07,5.3,14.73,5.3c7.66,0,12.18-1.77,14.73-5.3
					c2.75-3.54,2.75-7.86,2.75-14.15V1113c0,0,2.95,0.2,6.48,0.2c31.23,0,54.8-14.73,54.8-44.2
					C339.07,1053.09,332.19,1042.09,320.8,1035.02z M283.28,1086.29c-3.14,0-5.5-0.39-5.5-0.39v-29.66c0,0,2.95-0.4,6.29-0.4
					c11.39,0,19.25,4.72,19.25,14.93C303.32,1081.97,294.08,1086.29,283.28,1086.29z"/>
				<path class="st0" d="M447.91,1030.5c-3.54-2.55-7.86-2.55-14.14-2.55h-69.54c-6.29,0-10.61,0-14.14,2.55
					c-3.54,2.36-5.3,6.48-5.3,13.55c0,7.07,1.77,11.2,5.3,13.55c3.54,2.55,7.86,2.55,14.14,2.55h16.89v76.21
					c0,6.29,0,10.61,2.75,14.15c2.75,3.53,7.27,5.3,15.13,5.3c7.86,0,12.38-1.77,15.13-5.3c2.75-3.54,2.75-7.86,2.75-14.15v-76.21
					h16.89c6.29,0,10.61,0,14.14-2.55c3.53-2.36,5.3-6.48,5.3-13.55C453.21,1036.98,451.44,1032.86,447.91,1030.5z"/>
				<path class="st0" d="M489.56,1026.57c-7.86,0-12.38,1.77-15.13,5.3c-2.75,3.54-2.75,7.86-2.75,14.14v90.36
					c0,6.29,0,10.61,2.75,14.15c2.75,3.53,7.27,5.3,15.13,5.3c7.86,0,12.38-1.77,15.13-5.3c2.75-3.54,2.75-7.86,2.75-14.15v-90.36
					c0-6.29,0-10.61-2.75-14.14C501.94,1028.34,497.42,1026.57,489.56,1026.57z"/>
				<path class="st0" d="M593.88,1057.81c4.71,0,9.23,0.98,13.75,2.75c5.5,2.16,10.02,4.52,14.54,4.52
					c9.82,0,14.34-11.2,14.34-18.07c0-5.3-2.75-10.21-9.43-14.14c-7.66-4.52-20.63-7.46-32.81-7.46c-33.78,0-65.02,22.2-65.02,65.8
					c0,40.66,27.3,65.61,64.04,65.61c11.39,0,25.14-2.36,33.98-7.66c6.29-3.73,9.23-8.44,9.23-13.95c0-7.07-4.91-17.87-14.14-17.87
					c-4.32,0-8.64,2.36-13.55,4.32c-4.91,1.96-9.63,2.75-13.75,2.75c-15.13,0-29.66-10.21-29.66-33.59
					C565.39,1068.61,578.36,1057.81,593.88,1057.81z"/>
				<path class="st0" d="M717.84,1025c-41.64,0-68.55,28.09-68.55,66.19c0,38.11,26.12,66.2,67.77,66.2
					c41.64,0,68.55-28.09,68.55-66.2C785.61,1053.09,759.48,1025,717.84,1025z M717.45,1126.56c-19.45,0-32.02-12.97-32.02-35.36
					c0-22.39,12.57-35.36,32.02-35.36c19.45,0,32.02,12.97,32.02,35.36C749.47,1113.59,736.89,1126.56,717.45,1126.56z"/>
			</g>
			<g>
				<path class="st0" d="M323.35,344.66c8.95,5.87,17.29,6.4,17.05,0c-0.23-6.43,1.95-16.18-7.83-22.09
					c-7.37-4.45-15.38-5.59-16.21,0C315.52,328.16,314.4,338.79,323.35,344.66z"/>
				<path class="st0" d="M632.33,665.04c21.23-4.72,54.25-28.31,54.25-48.94s-20.64-34.79-24.77-77.25
					c-4.13-42.46,4.13-67.81,7.08-83.15c2.95-15.33-1.77-47.18-24.77-47.18c-23,0-37.74,11.79-47.76,32.43
					c-10.02,20.64-17.69,43.07-8.26,77.85c9.43,34.78,11.79,51.29,1.18,56.6c-10.61,5.31-38.33-18.4-85.5-12.15
					c-47.17,6.25-67.81,23.35-73.32,27.68c-5.5,4.32-13.37-0.79-18.08-6.29c-4.72-5.5-19.07-17.06-30.27-21.39
					c-11.2-4.32-17.72-6.56-21.03-11.44c-2.88-4.25-1.51-10.89,10.28-11.79c12.32-0.94,28.79,12.16,39.05,17.79
					c22.41,12.29,52.88,0.49,60.15-10.52c7.27-11.01-0.69-22.89-8.65-28.49c-7.96-5.6-47.86-47.87-57-67.04
					c-9.14-19.16-27.26-22.8-42.85-14.55s-27.81,23.78-36.95,37.05c-9.14,13.27-20.34,13.27-30.96-3.83
					c-10.61-17.1-44.23-46.88-54.55-51.6c-10.32-4.72-2.36-9.43,0.88-14.15c3.24-4.72,5.31-11.5,15.33-3.83
					c10.02,7.67,37.45,21.82,72.53,21.23c35.09-0.59,54.55-6.88,62.8-18.67c8.26-11.79-2.75-11.01-3.93-26.34
					c-1.18-15.33,2.75-64.47-8.65-84.52c-11.4-20.05-17.69-23.19-15.33-32.63c2.36-9.44,10.61-29.09,33.02-26.73
					c22.41,2.36,44.82,54.64,42.46,87.27c-2.36,32.63-12.19,88.85,26.34,139.95s82.95,62.51,91.21,53.07
					c8.26-9.44-7.08-49.14-8.26-77.05c-1.18-27.91,2.75-95.53,9.04-132.48s-0.23-71.28-4.72-80.98c-4.56-9.84-1.08-9.04,11.4-5.11
					c17.37,5.47,68.8-7.86,95.53-28.7c26.73-20.84,34.99-39.51,27.32-49.83c-4.93-6.63-10.02-4.42-21.82-2.95
					c-11.79,1.47-45.7,1.77-66.63-10.32c-20.93-12.09-32.73-20.93-43.93-33.32c-11.2-12.38-41.87-54.55-73.12-73.42
					C449.82,0.46,417.09-8.09,362.25,9.9c-54.84,17.99-84.03,68.7-94.06,91.7c-10.02,23-8.26,85.5-10.02,99.36
					c-1.77,13.86-5.9,37.15-19.75,44.23c-13.86,7.08-64.87,48.94-89.04,107.91s-32.43,127.84-6.49,210.16
					c25.95,82.32,83.15,134.8,143.29,173.13c60.15,38.33,88.76,46.03,99.96,50.16c11.2,4.13,21.98,35.15,16.8,56.38
					c-5.42,22.2-15.33,38.92-47.96,52.29c-30.15,12.35-45.21-2.36-40.49-22.8c4.72-20.44,22.57-55.72,52.69-56.64
					c12.96-0.39,25.15-8.62,14.92-24.35c-6.85-10.53-31.84,0.79-42.46,6.29c-10.61,5.5-41.28,29.09-50.71,57.79
					c-9.43,28.7-22.8,35.38-31.45,38.92c-8.65,3.54-17.3,11.4,4.72,18.87c22.01,7.47,72.85,22.8,109.16,5.5
					c36.3-17.3,64.61-46.39,61.85-81.77c-2.75-35.38-23.19-47.18-2.75-48.75c20.44-1.57,62.11-17.1,91.6-61.92
					C551.54,681.55,611.1,669.76,632.33,665.04z M536.21,281.74c-4.13,41.87-11.03,93.29-12.19,113.42
					c-2.95,51.11,11.79,86.49,0.79,85.7c-11.01-0.79-29.48-15.33-44.82-40.88c-15.33-25.55-22.41-58.61-18.87-97.92
					c2.58-28.63,7.08-64.83-17.3-104.53c-24.37-39.71-51.01-35.53-60.93-30.07c-16.03,8.81-28.01,23.15-34.4,34.5
					c-6.69,11.89-16.22,5.99-10.52-6.63c6-13.27,24.08-38.03,36.66-48.35c9.03-7.41,41.28-29.63,69.58-22.15
					c39.47,10.43,56.02,22,76.66,45.59C527.88,218.4,540.34,239.88,536.21,281.74z M363.63,125.08
					c27.52-11.79,57.22,5.18,68.8,12.19c10.41,6.3-0.36,4.21-5.5,3.93c-37.74-2.04-77.05,41.67-82.16,52.68
					c-5.11,11.01-7.47,10.22-7.86,0C336.5,183.66,336.11,136.88,363.63,125.08z M480.78,730.5
					c-44.82,48.35-103.78,21.82-170.42-11.2c-66.63-33.02-133.27-119.12-147.42-169.24c-14.15-50.12-8.85-137.4,11.2-190.47
					s76.07-97.89,93.17-104.37c17.1-6.49,20.05-31.25,17.1-72.53c-2.95-41.28,7.08-94.35,41.87-129.14s67.62-35.38,104.18-34.2
					c36.56,1.18,79.41,46.78,89.63,63.29c10.22,16.51,32.24,37.35,49.53,51.11c17.3,13.76,48.06,26.22,66.44,23.98
					c32.24-3.93,20.05,7.86,12.19,12.58c-7.86,4.72-16.9,10.22-55.43,16.9s-74.3-18.87-92.38-32.24
					c-18.08-13.37-61.72-47.96-103.78-57.4c-42.06-9.43-68.01,20.44-78.23,42.46c-10.22,22.01-7.47,66.83-7.86,88.06
					s-6.29,28.7,13.37,36.56c19.66,7.86,30.27,31.06,36.56,45.98c6.29,14.92,5.5,48.37,4.32,58.99
					c-1.18,10.61,3.93,20.84-2.36,23.59s-41.28,7.86-72.73,0.79c-31.45-7.08-43.57-23.28-57.79-40.88
					c-8.26-10.22-12.97,12.97-7.86,27.52c5.11,14.55-10.13,18.84-23.1,24.74c-12.97,5.9-8.74,22.04,10.13,29.91
					c23.88,9.95,58.58,52.29,66.04,64.47c7.47,12.19,23.59,12.58,37.35,7.47c13.76-5.11,29.88-25.95,39.71-39.71
					c9.83-13.76,21.23-8.26,29.09,0.79c7.86,9.04,23.59,29.09,41.28,45.21s20.44,26.34,8.65,29.09
					c-11.79,2.75-27.52-8.65-38.53-16.51c-11.01-7.86-30.66-22.8-45.21-7.26c-14.55,15.54-27.13,38.32-31.06,52.08
					c-3.93,13.76-8.26,13.37-32.24,6.68c-23.98-6.68-41.28-6.29-49.53-7.08c-8.26-0.79-10.22-19.66-14.55-25.55
					c-4.32-5.9-14.55-14.15-24.77-6.29c-10.22,7.86,1.57,27.32,12.78,43.24c11.2,15.92,17.1,17.69,40.1,18.28s45.7,5.9,61.92,11.5
					c15.69,5.42,27.21-21.05,32.43-35.09c5.08-13.67,55.43,24.18,65.07,31.84c9.64,7.67-6.1,30.07-12,42.46
					c-5.9,12.38-18.28,42.46,0.59,48.94c18.87,6.49,23.59-1.18,23.59-16.51s5.9-28.89,28.3-64.87
					c22.41-35.97,87.86-28.89,115.58-21.23c27.72,7.67,47.18,15.33,54.84-2.95c7.67-18.28,2.36-36.56-8.85-64.28
					c-11.2-27.72,2.36-66.63,8.85-81.97c6.49-15.33,21.82-14.15,25.95-0.59c4.13,13.56-2.95,27.13-8.85,59.56
					c-5.9,32.43,11.79,71.35,19.49,84.33c7.7,12.97,9.4,25.95,4.1,33.02c-5.31,7.08-18.87,19.46-72.53,25.36
					C535.03,655.61,525.59,682.14,480.78,730.5z"/>
				<path class="st0" d="M83.58,789.9c13.28,12.25,47.36,46.67,95.4,45.9c48.03-0.77,56.49-29.21,56.49-39.2
					c0-25.55-27.46-51.84-73.29-48.59c-45.83,3.25-65.52,16.54-75.81,22.46C72.77,778.29,72.44,779.62,83.58,789.9z"/>
				<path class="st0" d="M531.91,821.62c-12.66,37.8-8.57,58-7.25,68.21c1.75,13.5,2.69,14.21,14.64,8.7
					c14.24-6.56,53.16-22.41,68.54-61.15c15.38-38.74-4.59-54.98-12.59-58.31C574.78,770.57,544.57,783.82,531.91,821.62z"/>
				<path class="st0" d="M667.54,730.61c2.22,35.31,12.34,50.54,16.84,58.5c5.95,10.51,6.96,10.78,14.94,2.26
					c9.51-10.15,36.21-36.18,35.91-73.17s-22.14-43.67-29.84-43.73C685.72,674.32,665.32,695.31,667.54,730.61z"/>
				<path class="st0" d="M777.34,573.02c-5.37-22.11-19.39-23.05-24.01-22.01c-11.8,2.67-21.08,18.1-14.8,38.94
					c6.28,20.84,14.48,28.55,18.29,32.68c5.04,5.46,5.68,5.48,9.27-0.74C770.37,614.47,782.71,595.13,777.34,573.02z"/>
				<path class="st0" d="M765.06,507.64c3.25,2.01,3.57,1.93,4.49-1.65c1.09-4.26,4.53-15.55-1.2-25.76
					c-5.72-10.21-12.79-8.73-14.94-7.58c-5.48,2.96-7.94,11.88-1.94,21.33C757.47,503.44,762.6,506.12,765.06,507.64z"/>
				<path class="st0" d="M53.69,685.07c32.32,18.83,49.4,3.29,53.43-3.37c10.29-17.02,2.58-45.6-29.27-61.9
					c-31.85-16.3-50.32-15.37-59.56-15.57c-12.21-0.26-12.97,0.49-9.68,11.82C12.52,629.58,21.37,666.24,53.69,685.07z"/>
				<path class="st0" d="M55.59,540.25c8.9-7.73,9.75-25.24-5.25-40.22c-14.99-14.98-25.58-17.82-30.75-19.6
					c-6.84-2.37-7.4-2.08-7.61,4.91c-0.25,8.33-1.93,30.61,12.87,47.1C39.65,548.93,52.11,543.28,55.59,540.25z"/>
				<path class="st0" d="M55.33,444.14c6.72-2.42,11.03-12.13,5.84-23.87c-5.19-11.74-10.55-15.66-13.08-17.81
					c-3.34-2.83-3.72-2.8-5.37,1.11c-1.96,4.65-7.79,16.87-3.04,29.42S52.71,445.09,55.33,444.14z"/>
			</g>
		</g>
	</g>
</g>
</svg>
